{
  "accessors": [
    {
      "bufferView": 2,
      "componentType": 5126,
      "count": 26057,
      "max": [
        0.4395584464073181,
        0.11426296085119247,
        1.8192836046218872
      ],
      "min": [
        -0.4395584464073181,
        -0.1506066471338272,
        -0.006998419761657715
      ],
      "type": "VEC3"
    },
    {
      "bufferView": 2,
      "byteOffset": 312684,
      "componentType": 5126,
      "count": 26057,
      "max": [
        0.9999884963035583,
        0.999987781047821,
        0.9996597766876221
      ],
      "min": [
        -0.9999885559082031,
        -0.9999784827232361,
        -0.9996777772903442
      ],
      "type": "VEC3"
    },
    {
      "bufferView": 1,
      "componentType": 5126,
      "count": 26057,
      "max": [
        0.8750001192092896,
        1.0000001192092896
      ],
      "min": [
        0.0,
        0.0
      ],
      "type": "VEC2"
    },
    {
      "bufferView": 0,
      "componentType": 5125,
      "count": 152832,
      "type": "SCALAR"
    }
  ],
  "asset": {
    "extras": {
      "author": "triangle_3 (https://sketchfab.com/triangle_3)",
      "license": "CC-BY-4.0 (http://creativecommons.org/licenses/by/4.0/)",
      "source": "https://sketchfab.com/3d-models/blockout-female-8ec4f71e4bf24b3e9ba439de75d1dc9d",
      "title": "blockout female"
    },
    "generator": "Sketchfab-13.42.0",
    "version": "2.0"
  },
  "bufferViews": [
    {
      "buffer": 0,
      "byteLength": 611328,
      "name": "floatBufferViews",
      "target": 34963
    },
    {
      "buffer": 0,
      "byteLength": 208456,
      "byteOffset": 611328,
      "byteStride": 8,
      "name": "floatBufferViews",
      "target": 34962
    },
    {
      "buffer": 0,
      "byteLength": 625368,
      "byteOffset": 819784,
      "byteStride": 12,
      "name": "floatBufferViews",
      "target": 34962
    }
  ],
  "buffers": [
    {
      "byteLength": 1445152,
      "uri": "scene.bin"
    }
  ],
  "materials": [
    {
      "doubleSided": true,
      "name": "Material.001",
      "pbrMetallicRoughness": {
        "baseColorFactor": [
          1.0,
          0.607923,
          0.504086,
          1.0
        ],
        "metallicFactor": 0.0,
        "roughnessFactor": 0.847101799748379
      }
    }
  ],
  "meshes": [
    {
      "name": "blockout female_Material.001_0",
      "primitives": [
        {
          "attributes": {
            "NORMAL": 1,
            "POSITION": 0,
            "TEXCOORD_0": 2
          },
          "indices": 3,
          "material": 0,
          "mode": 4
        }
      ]
    }
  ],
  "nodes": [
    {
      "children": [
        1
      ],
      "matrix": [
        1.0,
        0.0,
        0.0,
        0.0,
        0.0,
        2.220446049250313e-16,
        -1.0,
        0.0,
        0.0,
        1.0,
        2.220446049250313e-16,
        0.0,
        0.0,
        0.0,
        0.0,
        1.0
      ],
      "name": "Sketchfab_model"
    },
    {
      "children": [
        2
      ],
      "matrix": [
        0.009999999776482582,
        0.0,
        0.0,
        0.0,
        0.0,
        0.0,
        0.009999999776482582,
        0.0,
        0.0,
        -0.009999999776482582,
        0.0,
        0.0,
        0.0,
        0.0,
        0.0,
        1.0
      ],
      "name": "75825e4c05394e6fbecdbd9ff78d4f1b.fbx"
    },
    {
      "children": [
        3
      ],
      "name": "RootNode"
    },
    {
      "children": [
        4
      ],
      "matrix": [
        100.0,
        0.0,
        0.0,
        0.0,
        0.0,
        -1.629206793918314e-05,
        -99.99999999999868,
        0.0,
        0.0,
        99.99999999999868,
        -1.629206793918314e-05,
        0.0,
        0.0,
        0.0,
        0.0,
        1.0
      ],
      "name": "blockout female"
    },
    {
      "mesh": 0,
      "name": "blockout female_Material.001_0"
    }
  ],
  "scene": 0,
  "scenes": [
    {
      "name": "Sketchfab_Scene",
      "nodes": [
        0
      ]
    }
  ]
}
